<svg width="20" height="20" viewBox="0 0 20 20" fill="none" xmlns="http://www.w3.org/2000/svg">
<rect width="20" height="20" fill="white"/>
<path d="M3 1.5H17C17.8284 1.5 18.5 2.17157 18.5 3V17C18.5 17.8284 17.8284 18.5 17 18.5H3C2.17157 18.5 1.5 17.8284 1.5 17V3C1.5 2.17157 2.17157 1.5 3 1.5Z" fill="white" stroke="#FE7729"/>
<rect x="1" y="5.5" width="18" height="9" fill="white"/>
<path d="M2.79999 9.54998C2.79999 9.30145 3.00146 9.09998 3.24999 9.09998H16.75C16.9985 9.09998 17.2 9.30145 17.2 9.54998V9.54998C17.2 9.7985 16.9985 9.99998 16.75 9.99998H3.24999C3.00146 9.99998 2.79999 9.7985 2.79999 9.54998V9.54998Z" fill="#FE7729"/>
</svg>
