<svg width="20" height="20" viewBox="0 0 20 20" fill="none" xmlns="http://www.w3.org/2000/svg">
<mask id="mask0_14_64" style="mask-type:alpha" maskUnits="userSpaceOnUse" x="0" y="0" width="20" height="20">
<rect width="20" height="20" fill="#D9D9D9"/>
</mask>
<g mask="url(#mask0_14_64)">
<rect x="10.0981" y="2.09808" width="9" height="7" transform="rotate(30 10.0981 2.09808)" fill="#FE7729"/>
<rect x="6.09808" y="9.02631" width="9" height="7" transform="rotate(30 6.09808 9.02631)" fill="#FE7729"/>
<path d="M9.61603 -1.06699C9.85517 -0.928916 9.93711 -0.623121 9.79904 -0.383975L9.54904 0.0490381L8.68301 -0.450962L8.93301 -0.883975C9.07108 -1.12312 9.37688 -1.20506 9.61603 -1.06699Z" fill="#D9D9D9" stroke="#FE7729"/>
<path d="M8.54904 1.7811L8.04904 2.64712L7.18301 2.14712L7.68301 1.2811L8.54904 1.7811Z" fill="#D9D9D9" stroke="#FE7729"/>
<path d="M7.04904 4.37918L6.54904 5.24521L5.68301 4.74521L6.18301 3.87918L7.04904 4.37918Z" fill="#D9D9D9" stroke="#FE7729"/>
<path d="M5.54904 6.97726L5.04904 7.84329L4.18301 7.34329L4.68301 6.47726L5.54904 6.97726Z" fill="#D9D9D9" stroke="#FE7729"/>
<path d="M4.04904 9.57535L3.54904 10.4414L2.68301 9.94137L3.18301 9.07535L4.04904 9.57535Z" fill="#D9D9D9" stroke="#FE7729"/>
<path d="M2.54904 12.1734L2.04904 13.0394L1.18301 12.5394L1.68301 11.6734L2.54904 12.1734Z" fill="#D9D9D9" stroke="#FE7729"/>
<path d="M1.04904 14.7715L0.799038 15.2045C0.660967 15.4436 0.355172 15.5255 0.116025 15.3875C-0.123121 15.2494 -0.205058 14.9436 -0.0669873 14.7045L0.183013 14.2715L1.04904 14.7715Z" fill="#D9D9D9" stroke="#FE7729"/>
<path d="M20.8744 5.43301C21.1135 5.57108 21.1954 5.87688 21.0574 6.11603L20.8074 6.54904L19.9413 6.04904L20.1913 5.61603C20.3294 5.37688 20.6352 5.29494 20.8744 5.43301Z" fill="#D9D9D9" stroke="#FE7729"/>
<path d="M19.8074 8.2811L19.3074 9.14712L18.4413 8.64712L18.9413 7.7811L19.8074 8.2811Z" fill="#D9D9D9" stroke="#FE7729"/>
<path d="M18.3074 10.8792L17.8074 11.7452L16.9413 11.2452L17.4413 10.3792L18.3074 10.8792Z" fill="#D9D9D9" stroke="#FE7729"/>
<path d="M16.8074 13.4773L16.3074 14.3433L15.4413 13.8433L15.9413 12.9773L16.8074 13.4773Z" fill="#D9D9D9" stroke="#FE7729"/>
<path d="M15.3074 16.0753L14.8074 16.9414L13.9413 16.4414L14.4413 15.5753L15.3074 16.0753Z" fill="#D9D9D9" stroke="#FE7729"/>
<path d="M13.8074 18.6734L13.3074 19.5394L12.4413 19.0394L12.9413 18.1734L13.8074 18.6734Z" fill="#D9D9D9" stroke="#FE7729"/>
</g>
</svg>
